<svg xmlns="http://www.w3.org/2000/svg" width="1060" height="660" viewBox="0 0 1060 660">
<rect width="100%" height="100%" fill="#ffffff"/>
<text x="530" y="36" text-anchor="middle" font-family="Arial, sans-serif" font-size="25" font-weight="700" fill="#111827"><tspan x="530" dy="0">B2. Slowdown proxy/native по медианам</tspan></text>
<text x="530" y="62" text-anchor="middle" font-family="Arial, sans-serif" font-size="14" font-weight="400" fill="#4b5563"><tspan x="530" dy="0">Во сколько раз proxy медленнее native</tspan></text>
<line x1="96" y1="510.0" x2="1024" y2="510.0" stroke="#e5e7eb" stroke-width="1"/>
<text x="82" y="515" text-anchor="end" font-family="Arial, sans-serif" font-size="12" font-weight="400" fill="#4b5563"><tspan x="82" dy="0">0.00</tspan></text>
<line x1="96" y1="426.4" x2="1024" y2="426.4" stroke="#e5e7eb" stroke-width="1"/>
<text x="82" y="431.4" text-anchor="end" font-family="Arial, sans-serif" font-size="12" font-weight="400" fill="#4b5563"><tspan x="82" dy="0">10.0</tspan></text>
<line x1="96" y1="342.8" x2="1024" y2="342.8" stroke="#e5e7eb" stroke-width="1"/>
<text x="82" y="347.8" text-anchor="end" font-family="Arial, sans-serif" font-size="12" font-weight="400" fill="#4b5563"><tspan x="82" dy="0">20.0</tspan></text>
<line x1="96" y1="259.2" x2="1024" y2="259.2" stroke="#e5e7eb" stroke-width="1"/>
<text x="82" y="264.2" text-anchor="end" font-family="Arial, sans-serif" font-size="12" font-weight="400" fill="#4b5563"><tspan x="82" dy="0">30.0</tspan></text>
<line x1="96" y1="175.6" x2="1024" y2="175.6" stroke="#e5e7eb" stroke-width="1"/>
<text x="82" y="180.60000000000002" text-anchor="end" font-family="Arial, sans-serif" font-size="12" font-weight="400" fill="#4b5563"><tspan x="82" dy="0">40.0</tspan></text>
<line x1="96" y1="92.0" x2="1024" y2="92.0" stroke="#e5e7eb" stroke-width="1"/>
<text x="82" y="97" text-anchor="end" font-family="Arial, sans-serif" font-size="12" font-weight="400" fill="#4b5563"><tspan x="82" dy="0">50.0</tspan></text>
<line x1="96" y1="92" x2="96" y2="510" stroke="#9ca3af"/>
<line x1="96" y1="510" x2="1024" y2="510" stroke="#9ca3af"/>
<text x="24" y="301" text-anchor="middle" font-family="Arial, sans-serif" font-size="14" font-weight="400" fill="#374151" transform="rotate(-90 24 301)"><tspan x="24" dy="0">раз</tspan></text>
<rect x="96.0" y="469.3" width="285.3" height="40.7" rx="5" fill="#2563eb"/>
<text x="238.66666666666666" y="461.2986478844221" text-anchor="middle" font-family="Arial, sans-serif" font-size="12" font-weight="700" fill="#111827"><tspan x="238.66666666666666" dy="0">4.87×</tspan></text>
<text x="238.66666666666666" y="542" text-anchor="middle" font-family="Arial, sans-serif" font-size="13" font-weight="400" fill="#111827"><tspan x="238.66666666666666" dy="0">npm install</tspan></text>
<rect x="417.3" y="447.5" width="285.3" height="62.5" rx="5" fill="#2563eb"/>
<text x="560" y="439.5017931034483" text-anchor="middle" font-family="Arial, sans-serif" font-size="12" font-weight="700" fill="#111827"><tspan x="560" dy="0">7.48×</tspan></text>
<text x="560" y="542" text-anchor="middle" font-family="Arial, sans-serif" font-size="13" font-weight="400" fill="#111827"><tspan x="560" dy="0">поиск файлов</tspan></text>
<rect x="738.7" y="365.7" width="285.3" height="144.3" rx="5" fill="#2563eb"/>
<text x="881.3333333333333" y="357.68682563905884" text-anchor="middle" font-family="Arial, sans-serif" font-size="12" font-weight="700" fill="#111827"><tspan x="881.3333333333333" dy="0">17.3×</tspan></text>
<text x="881.3333333333333" y="542" text-anchor="middle" font-family="Arial, sans-serif" font-size="13" font-weight="400" fill="#111827"><tspan x="881.3333333333333" dy="0">создание/удаление</tspan></text>
<rect x="465" y="616" width="14" height="14" rx="3" fill="#2563eb"/>
<text x="487" y="628" text-anchor="start" font-family="Arial, sans-serif" font-size="13" font-weight="400" fill="#374151"><tspan x="487" dy="0">slowdown</tspan></text>
</svg>